# Blender 4.0.2
# www.blender.org
mtllib standard_door.mtl
o open_door_2
v 7.917848 0.999995 -66.000008
v 7.917848 1.385826 -66.000008
v 7.917848 0.999995 -67.141083
v 7.917848 1.385826 -67.141083
v 8.354126 0.999995 -66.000008
v 8.354126 0.999995 -67.141083
v 7.832081 0.999995 -67.141083
v 7.832081 0.999995 -66.000008
v 7.832081 1.385826 -66.000008
v 7.832081 1.385826 -67.141083
v 7.917848 0.999995 -66.396309
v 7.917848 1.385826 -66.396309
v 8.354126 0.999995 -66.396309
v 7.832081 0.999995 -66.396309
v 7.832081 1.385826 -66.396309
v 7.917848 1.896831 -66.396309
v 7.917848 1.535558 -67.141083
v 7.832081 1.896831 -66.396309
v 7.832081 1.535558 -67.141083
v 7.917848 1.896831 -66.000008
v 7.832081 1.896831 -66.000008
v 7.917848 2.527954 -66.000008
v 7.832081 2.527954 -66.000008
v 7.917848 2.527954 -66.396309
v 7.832081 2.527954 -66.396309
v 7.917847 4.999995 -66.000008
v 7.917847 4.614164 -66.000008
v 7.917847 4.999995 -67.141083
v 7.917847 4.614164 -67.141083
v 8.354125 4.999995 -66.000008
v 8.354125 4.614164 -66.000008
v 8.354125 4.999995 -67.141083
v 7.832081 4.999995 -67.141083
v 7.832081 4.999995 -66.000008
v 7.832081 4.614164 -66.000008
v 7.832081 4.614164 -67.141083
v 7.917847 4.999995 -66.396309
v 7.917847 4.614164 -66.396309
v 8.354125 4.999995 -66.396309
v 7.832081 4.999995 -66.396309
v 7.832081 4.614164 -66.396309
v 7.917847 4.103160 -66.396309
v 7.917847 4.464432 -67.141083
v 7.832081 4.103160 -66.396309
v 7.832081 4.464432 -67.141083
v 7.917847 4.103160 -66.000008
v 7.832081 4.103160 -66.000008
v 7.917847 3.472036 -66.000008
v 7.832081 3.472036 -66.000008
v 7.917847 3.472036 -66.396309
v 7.832081 3.472036 -66.396309
v 7.917848 4.614164 -68.000000
v 8.354126 4.999995 -68.000000
v 7.917848 4.999995 -68.000000
v 7.917848 0.999995 -68.000000
v 7.917848 1.385826 -68.000000
v 8.354127 1.385826 -66.000008
v 8.354127 1.385826 -67.141083
v 8.439894 0.999995 -67.141083
v 8.439894 0.999995 -66.000008
v 8.439894 1.385826 -66.000008
v 8.439894 1.385826 -67.141083
v 8.354127 1.385826 -66.396309
v 8.439894 0.999995 -66.396309
v 8.439894 1.385826 -66.396309
v 8.354127 1.896831 -66.396309
v 8.354127 1.535558 -67.141083
v 8.439894 1.896831 -66.396309
v 8.439894 1.535558 -67.141083
v 8.354127 1.896831 -66.000008
v 8.439894 1.896831 -66.000008
v 8.354127 2.527954 -66.000008
v 8.439894 2.527954 -66.000008
v 8.354127 2.527954 -66.396309
v 8.439894 2.527954 -66.396309
v 8.354127 4.614164 -67.141083
v 8.439894 4.999995 -67.141083
v 8.439894 4.999995 -66.000008
v 8.439894 4.614164 -66.000008
v 8.439894 4.614164 -67.141083
v 8.354127 4.614164 -66.396309
v 8.439894 4.999995 -66.396309
v 8.439894 4.614164 -66.396309
v 8.354127 4.103160 -66.396309
v 8.354127 4.464432 -67.141083
v 8.439894 4.103160 -66.396309
v 8.439894 4.464432 -67.141083
v 8.354127 4.103160 -66.000008
v 8.439894 4.103160 -66.000008
v 8.354127 3.472036 -66.000008
v 8.439894 3.472036 -66.000008
v 8.354127 3.472036 -66.396309
v 8.439894 3.472036 -66.396309
v 8.354127 4.614164 -68.000000
v 8.354126 0.999995 -68.000000
v 8.354126 1.385826 -68.000000
v 7.917848 2.999995 -66.000008
v 7.917848 2.999995 -66.396309
v 8.250022 1.385826 -66.396309
v 8.250022 3.053629 -66.449944
v 8.354127 2.999995 -66.396309
v 8.354126 2.999995 -66.000008
v 8.026052 3.053629 -66.449944
v 8.026052 1.385826 -66.396309
v 8.026052 2.949095 -67.141083
v 8.026052 1.385826 -67.141083
v 8.026051 4.614164 -66.396309
v 8.026051 4.614164 -67.141083
v 8.026052 4.614164 -68.000000
v 8.026052 3.053629 -67.946365
v 8.026052 1.385826 -68.000000
v 8.250022 2.949095 -67.141083
v 8.250022 1.385826 -67.141083
v 8.250022 4.614164 -66.396309
v 8.250022 4.614164 -67.141083
v 8.250022 4.614164 -68.000000
v 8.250022 3.053629 -67.946373
v 8.250022 1.385826 -68.000000
v 7.917848 3.279630 -66.000008
v 7.917848 3.279630 -66.396309
v 8.354127 3.279630 -66.396309
v 8.354126 3.279630 -66.000008
v 8.026052 3.225996 -66.449944
v 8.026052 3.279630 -67.141083
v 8.026052 3.225996 -67.946365
v 8.250022 3.225996 -66.449944
v 8.250022 3.279630 -67.141083
v 8.250022 3.225996 -67.946373
v 7.917848 2.720361 -66.000008
v 7.917848 2.720361 -66.396309
v 8.250022 2.771261 -67.949104
v 8.354127 2.720361 -66.396309
v 8.354126 2.720361 -66.000008
v 8.026052 2.771261 -66.447212
v 8.026052 2.771261 -67.141083
v 8.026052 2.771261 -67.949104
v 8.250022 2.771261 -67.141083
v 8.250022 2.771261 -66.447212
v 8.026052 3.279630 -66.396309
v 8.026052 2.949095 -66.447212
v 8.026052 3.279630 -68.000000
v 8.026052 2.949095 -67.949104
v 8.026052 3.053629 -67.141083
v 8.250022 3.279630 -66.396309
v 8.250022 2.949095 -66.447212
v 8.250022 3.279630 -68.000000
v 8.250022 2.949095 -67.949104
v 8.250022 3.053629 -67.141083
v 8.250022 3.225996 -67.141083
v 8.026052 3.225996 -67.141083
v 8.026052 2.999995 -67.141083
v 8.026052 2.999995 -68.000000
v 8.026052 2.999995 -66.396309
v 8.250022 2.999995 -68.000000
v 8.250022 2.999995 -67.141083
v 8.250022 2.999995 -66.396309
v 8.250022 2.720361 -68.000000
v 8.026052 2.720361 -66.396309
v 8.026052 2.720361 -68.000000
v 8.250022 2.720361 -66.396309
v 8.250022 2.720361 -67.141083
v 8.026052 2.720361 -67.141083
v 8.099935 3.225996 -67.141083
v 8.099935 3.053629 -67.141083
v 8.176138 3.225996 -67.141083
v 8.176138 3.053629 -67.141083
v 8.099935 2.949095 -67.141083
v 8.099935 2.771261 -67.141083
v 8.176138 2.949095 -67.141083
v 8.176138 2.771261 -67.141083
v 8.099935 3.225996 -66.449944
v 8.099935 3.053629 -66.449944
v 8.099935 3.225996 -67.946365
v 8.099936 3.053629 -67.946365
v 8.176138 3.225996 -66.449944
v 8.176138 3.053629 -66.449944
v 8.176138 3.225996 -67.946373
v 8.176138 3.053629 -67.946373
v 8.099936 2.949095 -67.949104
v 8.099935 2.949095 -66.447212
v 8.176138 2.949095 -67.949104
v 8.176138 2.949095 -66.447212
v 8.176138 2.771261 -67.949104
v 8.099935 2.771261 -66.447212
v 8.099936 2.771261 -67.949104
v 8.176138 2.771261 -66.447212
vn -0.0000 -0.0000 1.0000
vn -1.0000 -0.0000 -0.0000
vn -0.0000 -0.0000 -1.0000
vn -0.0000 -1.0000 -0.0000
vn -0.0000 0.8997 -0.4364
vn 1.0000 -0.0000 -0.0000
vn -0.0000 1.0000 -0.0000
vn -0.0000 -0.8997 -0.4364
vt 0.300577 0.910072
vt 0.210014 0.909299
vt 0.210306 0.874968
vt 0.300870 0.875740
vt 0.916995 0.820821
vt 0.916995 0.932582
vt 0.950184 0.932582
vt 0.950184 0.820821
vt 0.247277 0.935802
vt 0.247204 0.944318
vt 0.156641 0.943554
vt 0.156713 0.935030
vt 0.284832 0.083093
vt 0.284803 0.027811
vt 0.299063 0.027804
vt 0.299072 0.083086
vt 0.184123 0.874745
vt 0.183831 0.909076
vt 0.156937 0.908847
vt 0.157229 0.874516
vt 0.405774 0.027785
vt 0.405783 0.083067
vt 0.209956 0.916048
vt 0.183773 0.915825
vt 0.405796 0.156284
vt 0.299076 0.104539
vt 0.156879 0.915596
vt 0.106396 0.908416
vt 0.106338 0.915165
vt 0.462566 0.083057
vt 0.462579 0.156274
vt 0.462556 0.027775
vt 0.106688 0.874084
vt 0.392910 0.161398
vt 0.291526 0.112251
vt 0.788246 0.889788
vt 0.821435 0.889788
vt 0.821435 0.836934
vt 0.788246 0.836934
vt 0.788246 0.932582
vt 0.821435 0.932582
vt 0.299093 0.104539
vt 0.883806 0.932582
vt 0.883806 0.920043
vt 0.244691 0.909595
vt 0.244633 0.916344
vt 0.405835 0.381980
vt 0.391593 0.381980
vt 0.391593 0.246712
vt 0.405842 0.246712
vt 0.462594 0.246702
vt 0.405811 0.246712
vt 0.287520 0.909960
vt 0.287462 0.916709
vt 0.405842 0.156284
vt 0.284904 0.545643
vt 0.299154 0.545643
vt 0.299154 0.600925
vt 0.284904 0.600925
vt 0.455569 0.877060
vt 0.455276 0.911391
vt 0.429093 0.911168
vt 0.429386 0.876836
vt 0.482170 0.911620
vt 0.482463 0.877289
vt 0.405873 0.600906
vt 0.405863 0.545624
vt 0.455218 0.918140
vt 0.429035 0.917917
vt 0.299154 0.524189
vt 0.405850 0.472407
vt 0.482112 0.918369
vt 0.532711 0.912051
vt 0.532654 0.918800
vt 0.462633 0.472398
vt 0.462646 0.545614
vt 0.462655 0.600897
vt 0.533004 0.877720
vt 0.392937 0.467295
vt 0.291592 0.516482
vt 0.788246 0.705017
vt 0.788246 0.757871
vt 0.821435 0.757871
vt 0.821435 0.705017
vt 0.788246 0.662223
vt 0.821435 0.662223
vt 0.883806 0.674762
vt 0.883806 0.662223
vt 0.394358 0.917621
vt 0.394415 0.910872
vt 0.462618 0.381970
vt 0.351529 0.917256
vt 0.351587 0.910507
vt 0.426334 0.937329
vt 0.426261 0.945844
vt 0.375720 0.945403
vt 0.375793 0.936898
vt 0.590999 0.912548
vt 0.590775 0.938731
vt 0.532488 0.938234
vt 0.591292 0.878217
vt 0.106172 0.934599
vt 0.047885 0.934102
vt 0.048108 0.907919
vt 0.048401 0.873587
vt 0.883806 0.820821
vt 0.427073 0.850632
vt 0.427143 0.842439
vt 0.485430 0.842937
vt 0.485361 0.851129
vt 0.251309 0.084179
vt 0.237060 0.084179
vt 0.237060 0.028897
vt 0.251309 0.028897
vt 0.130349 0.028897
vt 0.130349 0.084179
vt 0.184181 0.867996
vt 0.210364 0.868219
vt 0.237060 0.105633
vt 0.130349 0.157396
vt 0.157287 0.867766
vt 0.106746 0.867335
vt 0.073566 0.157396
vt 0.073566 0.084179
vt 0.073566 0.028897
vt 0.143258 0.162509
vt 0.244619 0.113341
vt 0.755057 0.836934
vt 0.755057 0.889788
vt 0.755057 0.932582
vt 0.692686 0.920043
vt 0.692686 0.932582
vt 0.245041 0.868514
vt 0.244984 0.875264
vt 0.130349 0.383092
vt 0.130349 0.247823
vt 0.144599 0.247823
vt 0.144599 0.383092
vt 0.073566 0.247823
vt 0.287870 0.868880
vt 0.287813 0.875629
vt 0.251309 0.546736
vt 0.251310 0.602018
vt 0.237060 0.602018
vt 0.237060 0.546736
vt 0.130349 0.602018
vt 0.130349 0.546736
vt 0.429443 0.870087
vt 0.455626 0.870310
vt 0.130349 0.473519
vt 0.237060 0.525283
vt 0.482520 0.870540
vt 0.533062 0.870971
vt 0.073566 0.546736
vt 0.073566 0.473519
vt 0.073566 0.602018
vt 0.143258 0.468406
vt 0.244619 0.517574
vt 0.755057 0.705017
vt 0.755057 0.757871
vt 0.755057 0.662223
vt 0.692686 0.662223
vt 0.692686 0.674762
vt 0.394708 0.876540
vt 0.394766 0.869791
vt 0.073566 0.383092
vt 0.351879 0.876175
vt 0.351937 0.869426
vt 0.376532 0.850201
vt 0.376602 0.841999
vt 0.533227 0.851537
vt 0.591515 0.852034
vt 0.106911 0.847901
vt 0.048624 0.847404
vt 0.705263 0.057598
vt 0.770359 0.057598
vt 0.770359 0.107244
vt 0.754826 0.107244
vt 0.721408 0.107244
vt 0.705263 0.107244
vt 0.754826 0.350924
vt 0.865346 0.350924
vt 0.865346 0.522642
vt 0.754826 0.522642
vt 0.705264 0.522642
vt 0.721408 0.522642
vt 0.770359 0.522642
vt 0.770359 0.572288
vt 0.705264 0.572288
vt 0.048694 0.839212
vt 0.106981 0.839709
vt 0.248016 0.849105
vt 0.248086 0.840914
vt 0.267062 0.841074
vt 0.266992 0.849266
vt 0.916995 0.773984
vt 0.883806 0.773984
vt 0.883806 0.797403
vt 0.916995 0.797403
vt 0.106100 0.943113
vt 0.047812 0.942616
vt 0.950184 0.797403
vt 0.950184 0.773984
vt 0.338530 0.910395
vt 0.319553 0.910233
vt 0.319846 0.875902
vt 0.338822 0.876064
vt 0.610889 0.350924
vt 0.610889 0.522642
vt 0.515057 0.522642
vt 0.515057 0.350924
vt 0.721408 0.350924
vt 0.556359 0.670539
vt 0.543838 0.670539
vt 0.543838 0.644550
vt 0.556359 0.644550
vt 0.543834 0.632009
vt 0.425752 0.644550
vt 0.425748 0.632050
vt 0.285229 0.936126
vt 0.285157 0.944639
vt 0.266180 0.944479
vt 0.266253 0.935964
vt 0.484621 0.937826
vt 0.484549 0.946341
vt 0.721408 0.278962
vt 0.754826 0.278962
vt 0.961177 0.350924
vt 0.961177 0.522642
vt 0.557364 0.748764
vt 0.544843 0.748764
vt 0.544843 0.723574
vt 0.557364 0.723574
vt 0.324349 0.683060
vt 0.324349 0.670539
vt 0.425752 0.670539
vt 0.425752 0.683060
vt 0.285969 0.849428
vt 0.286038 0.841235
vt 0.157522 0.840150
vt 0.157452 0.848332
vt 0.721408 0.314943
vt 0.754826 0.314943
vt 0.865346 0.107244
vt 0.961177 0.107244
vt 0.961177 0.278962
vt 0.865346 0.278962
vt 0.610889 0.107244
vt 0.610889 0.278962
vt 0.515057 0.278962
vt 0.515057 0.107244
vt 0.916995 0.662223
vt 0.950184 0.662223
vt 0.282247 0.630393
vt 0.282247 0.642914
vt 0.180844 0.642914
vt 0.180844 0.630393
vt 0.313632 0.723574
vt 0.326153 0.723574
vt 0.326153 0.748764
vt 0.313632 0.748764
vt 0.543838 0.683059
vt 0.063814 0.763415
vt 0.063854 0.750895
vt 0.181540 0.751276
vt 0.181500 0.763797
vt 0.521959 0.308042
vt 0.515057 0.314943
vt 0.521959 0.285863
vt 0.714507 0.285863
vt 0.714507 0.308042
vt 0.610889 0.314943
vt 0.610889 0.308042
vt 0.954276 0.285863
vt 0.961177 0.314943
vt 0.954276 0.308042
vt 0.761727 0.308042
vt 0.761727 0.285863
vt 0.865346 0.308042
vt 0.865346 0.314943
vt 0.865346 0.285863
vt 0.610889 0.285863
vt 0.610889 0.321493
vt 0.714859 0.321493
vt 0.521607 0.321493
vt 0.761375 0.321493
vt 0.865346 0.321493
vt 0.954627 0.321493
vt 0.761375 0.344375
vt 0.521607 0.344375
vt 0.714859 0.344375
vt 0.954627 0.344375
vt 0.865346 0.344375
vt 0.610889 0.344375
vt 0.063936 0.725705
vt 0.181622 0.726086
vt 0.282625 0.726414
vt 0.282544 0.751604
vt 0.427157 0.748764
vt 0.427157 0.723574
vt 0.324349 0.644550
vt 0.062758 0.668903
vt 0.062758 0.642914
vt 0.180844 0.668903
vt 0.282247 0.668903
vt 0.544843 0.711053
vt 0.427157 0.711053
vt 0.294768 0.668903
vt 0.294768 0.642914
vt 0.326153 0.711053
vt 0.295064 0.751644
vt 0.295146 0.726454
vt 0.050237 0.642914
vt 0.050237 0.668903
vt 0.326153 0.761284
vt 0.427157 0.761284
vt 0.051415 0.725664
vt 0.051334 0.750854
vt 0.311828 0.644550
vt 0.311828 0.670539
vt 0.544843 0.761285
vt 0.062758 0.681424
vt 0.180844 0.681424
vt 0.181663 0.713566
vt 0.063977 0.713184
vt 0.324349 0.644606
vt 0.324344 0.632085
vt 0.282503 0.764125
vt 0.282247 0.681424
vt 0.282666 0.713893
vt 0.062758 0.630393
s 0
usemtl Material.014
f 129/1/1 2/2/1 57/3/1 133/4/1
f 130/5/2 12/6/2 2/7/2 129/8/2
f 130/9/3 158/10/3 104/11/3 12/12/3
f 4/13/3 3/14/3 7/15/3 10/16/3
f 5/17/1 57/3/1 2/2/1 1/18/1
f 11/19/4 13/20/4 5/17/4 1/18/4
f 14/21/2 15/22/2 10/16/2 7/15/2
f 1/18/1 2/2/1 9/23/1 8/24/1
f 10/16/2 15/22/2 18/25/2 19/26/2
f 11/19/4 1/18/4 8/24/4 14/27/4
f 3/28/4 11/19/4 14/27/4 7/29/4
f 15/22/2 9/30/2 21/31/2 18/25/2
f 8/32/2 9/30/2 15/22/2 14/21/2
f 3/28/4 6/33/4 13/20/4 11/19/4
f 16/34/5 17/35/5 19/26/5 18/25/5
f 20/36/6 16/37/6 24/38/6 22/39/6
f 2/40/6 12/41/6 16/37/6 20/36/6
f 4/13/3 10/16/3 19/42/3 17/35/3
f 12/41/6 4/43/6 17/44/6 16/37/6
f 9/23/1 2/2/1 20/45/1 21/46/1
f 51/47/3 50/48/3 24/49/3 25/50/3
f 18/25/2 21/31/2 23/51/2 25/52/2
f 21/46/1 20/45/1 22/53/1 23/54/1
f 16/34/3 18/55/3 25/50/3 24/49/3
f 29/56/3 36/57/3 33/58/3 28/59/3
f 30/60/1 26/61/1 27/62/1 31/63/1
f 37/64/7 26/61/7 30/60/7 39/65/7
f 40/66/2 33/58/2 36/57/2 41/67/2
f 26/61/1 34/68/1 35/69/1 27/62/1
f 36/57/2 45/70/2 44/71/2 41/67/2
f 37/64/7 40/72/7 34/68/7 26/61/7
f 28/73/7 33/74/7 40/72/7 37/64/7
f 41/67/2 44/71/2 47/75/2 35/76/2
f 34/77/2 40/66/2 41/67/2 35/76/2
f 28/73/7 37/64/7 39/65/7 32/78/7
f 42/79/8 44/71/8 45/70/8 43/80/8
f 46/81/6 48/82/6 50/83/6 42/84/6
f 27/85/6 46/81/6 42/84/6 38/86/6
f 29/56/3 43/80/3 45/70/3 36/57/3
f 38/86/6 42/84/6 43/87/6 29/88/6
f 35/69/1 47/89/1 46/90/1 27/62/1
f 49/91/2 51/47/2 25/52/2 23/51/2
f 44/71/2 51/47/2 49/91/2 47/75/2
f 47/89/1 49/92/1 48/93/1 46/90/1
f 42/79/3 50/48/3 51/47/3 44/71/3
f 50/83/6 48/82/6 22/39/6 24/38/6
f 48/93/1 49/92/1 23/54/1 22/53/1
f 29/94/4 108/95/4 107/96/4 38/97/4
f 28/73/2 54/98/2 52/99/2 29/100/2
f 32/78/7 53/101/7 54/98/7 28/73/7
f 4/102/2 56/103/2 55/104/2 3/28/2
f 3/28/4 55/104/4 95/105/4 6/33/4
f 132/5/6 133/106/6 57/43/6 63/6/6
f 76/107/4 115/108/4 116/109/4 94/110/4
f 58/111/3 62/112/3 59/113/3 6/114/3
f 64/115/6 59/113/6 62/112/6 65/116/6
f 5/17/1 60/117/1 61/118/1 57/3/1
f 62/112/6 69/119/6 68/120/6 65/116/6
f 13/20/4 64/121/4 60/117/4 5/17/4
f 6/33/4 59/122/4 64/121/4 13/20/4
f 65/116/6 68/120/6 71/123/6 61/124/6
f 60/125/6 64/115/6 65/116/6 61/124/6
f 66/126/5 68/120/5 69/119/5 67/127/5
f 70/36/2 72/39/2 74/128/2 66/129/2
f 57/40/2 70/36/2 66/129/2 63/130/2
f 58/111/3 67/127/3 69/119/3 62/112/3
f 63/130/2 66/129/2 67/131/2 58/132/2
f 61/118/1 71/133/1 70/134/1 57/3/1
f 93/135/3 75/136/3 74/137/3 92/138/3
f 68/120/6 75/136/6 73/139/6 71/123/6
f 71/133/1 73/140/1 72/141/1 70/134/1
f 66/126/3 74/137/3 75/136/3 68/120/3
f 76/142/3 32/143/3 77/144/3 80/145/3
f 82/146/6 83/147/6 80/145/6 77/144/6
f 30/60/1 31/63/1 79/148/1 78/149/1
f 80/145/6 83/147/6 86/150/6 87/151/6
f 39/65/7 30/60/7 78/149/7 82/152/7
f 32/78/7 39/65/7 82/152/7 77/153/7
f 83/147/6 79/154/6 89/155/6 86/150/6
f 78/156/6 79/154/6 83/147/6 82/146/6
f 84/157/8 85/158/8 87/151/8 86/150/8
f 88/81/2 84/159/2 92/160/2 90/82/2
f 31/85/2 81/161/2 84/159/2 88/81/2
f 76/142/3 80/145/3 87/151/3 85/158/3
f 81/161/2 76/162/2 85/163/2 84/159/2
f 79/148/1 31/63/1 88/164/1 89/165/1
f 91/166/6 73/139/6 75/136/6 93/135/6
f 86/150/6 89/155/6 91/166/6 93/135/6
f 89/165/1 88/164/1 90/167/1 91/168/1
f 84/157/3 86/150/3 93/135/3 92/138/3
f 92/160/2 74/128/2 72/39/2 90/82/2
f 90/167/1 72/141/1 73/140/1 91/168/1
f 81/169/4 114/170/4 115/108/4 76/107/4
f 32/78/6 76/171/6 94/172/6 53/101/6
f 58/173/6 6/33/6 95/105/6 96/174/6
f 54/175/3 53/176/3 94/177/3 116/178/3 109/179/3 52/180/3
f 157/181/6 161/182/6 113/183/6 118/184/6
f 56/185/3 111/186/3 118/184/3 96/187/3 95/188/3 55/189/3
f 96/174/7 118/190/7 113/191/7 58/173/7
f 132/192/3 160/193/3 156/194/3 101/195/3
f 121/196/6 122/197/6 102/198/6 101/199/6
f 12/12/7 104/11/7 106/200/7 4/102/7
f 4/102/7 106/200/7 111/201/7 56/103/7
f 120/196/2 98/199/2 97/202/2 119/203/2
f 119/204/1 97/205/1 102/206/1 122/207/1
f 162/208/2 106/209/2 104/210/2 158/211/2
f 159/212/2 111/186/2 106/209/2 162/208/2
f 147/213/1 181/214/1 183/215/1 131/216/1
f 131/217/7 183/215/7 170/218/7 137/219/7
f 120/220/3 139/221/3 153/222/3 98/223/3
f 52/224/4 109/225/4 108/95/4 29/94/4
f 141/226/3 109/179/3 116/178/3 146/227/3
f 161/182/6 160/228/6 99/229/6 113/183/6
f 128/230/1 177/231/1 178/232/1 117/233/1
f 145/234/4 182/235/4 169/236/4 112/237/4
f 121/238/3 144/239/3 114/170/3 81/169/3
f 58/173/7 113/191/7 99/240/7 63/241/7
f 159/212/3 152/242/3 154/243/3 157/181/3
f 101/195/3 156/194/3 144/239/3 121/238/3
f 115/244/6 114/245/6 144/246/6 127/247/6
f 116/178/6 115/244/6 127/247/6 146/227/6
f 152/242/3 141/226/3 146/227/3 154/243/3
f 38/97/3 107/96/3 139/221/3 120/220/3
f 108/248/2 124/249/2 139/250/2 107/251/2
f 109/179/2 141/226/2 124/249/2 108/248/2
f 27/62/1 119/204/1 122/207/1 31/63/1
f 38/252/2 120/196/2 119/203/2 27/253/2
f 81/252/6 31/88/6 122/197/6 121/196/6
f 111/186/3 159/212/3 157/181/3 118/184/3
f 134/254/7 184/255/7 168/256/7 135/257/7
f 100/258/3 176/259/3 175/260/3 126/261/3
f 112/237/4 169/236/4 181/214/4 147/262/4
f 63/241/3 99/240/3 160/193/3 132/192/3
f 125/263/4 173/264/4 163/265/4 150/266/4
f 101/199/6 102/198/6 133/106/6 132/5/6
f 98/223/3 153/222/3 158/10/3 130/9/3
f 98/199/2 130/5/2 129/8/2 97/202/2
f 97/205/1 129/1/1 133/4/1 102/206/1
f 103/267/2 153/268/2 139/250/2 123/269/2
f 125/270/2 141/226/2 152/242/2 110/271/2
f 110/271/2 152/242/2 151/272/2 143/273/2
f 143/273/2 151/272/2 153/268/2 103/267/2
f 126/274/6 144/246/6 156/275/6 100/276/6
f 117/277/6 154/243/6 146/227/6 128/278/6
f 148/279/6 155/280/6 154/243/6 117/277/6
f 100/276/6 156/275/6 155/280/6 148/279/6
f 149/281/6 127/247/6 144/246/6 126/274/6
f 128/278/6 146/227/6 127/247/6 149/281/6
f 123/269/2 139/250/2 124/249/2 150/282/2
f 150/282/2 124/249/2 141/226/2 125/270/2
f 105/283/2 151/272/2 152/242/2 142/284/2
f 140/285/2 153/268/2 151/272/2 105/283/2
f 147/286/6 154/243/6 155/280/6 112/287/6
f 112/287/6 155/280/6 156/275/6 145/288/6
f 131/289/6 157/181/6 154/243/6 147/286/6
f 134/290/2 158/211/2 153/268/2 140/285/2
f 142/284/2 152/242/2 159/212/2 136/291/2
f 145/288/6 156/275/6 160/228/6 138/292/6
f 138/292/6 160/228/6 161/182/6 137/293/6
f 136/291/2 159/212/2 162/208/2 135/294/2
f 135/294/2 162/208/2 158/211/2 134/290/2
f 137/293/6 161/182/6 157/181/6 131/289/6
f 173/264/2 174/295/2 164/296/2 163/265/2
f 163/265/2 164/296/2 172/297/2 171/298/2
f 177/231/6 165/299/6 166/300/6 178/232/6
f 165/299/6 175/260/6 176/259/6 166/300/6
f 169/236/6 182/235/6 186/301/6 170/218/6
f 179/302/2 185/303/2 168/256/2 167/304/2
f 167/304/2 168/256/2 184/255/2 180/305/2
f 181/214/6 169/236/6 170/218/6 183/215/6
f 117/306/7 178/232/7 166/300/7 148/307/7
f 140/308/3 180/305/3 184/255/3 134/309/3
f 148/307/7 166/300/7 176/259/7 100/310/7
f 123/311/3 171/298/3 172/297/3 103/312/3
f 136/313/1 185/303/1 179/302/1 142/314/1
f 126/315/4 175/260/4 165/299/4 149/316/4
f 110/317/1 174/295/1 173/264/1 125/318/1
f 138/319/3 186/301/3 182/235/3 145/320/3
f 149/316/4 165/299/4 177/231/4 128/321/4
f 142/322/4 179/302/4 167/304/4 105/323/4
f 143/324/7 164/296/7 174/295/7 110/325/7
f 137/219/7 170/218/7 186/326/7 138/327/7
f 150/266/4 163/265/4 171/298/4 123/328/4
f 105/323/4 167/304/4 180/305/4 140/329/4
f 103/330/7 172/297/7 164/296/7 143/324/7
f 135/257/7 168/256/7 185/303/7 136/331/7
